<mxfile host="app.diagrams.net" modified="2023-10-22T14:42:28.627Z" agent="Mozilla/5.0 (Windows NT 10.0; Win64; x64; rv:109.0) Gecko/20100101 Firefox/118.0" etag="lcHT5SruWG18fu7nvHMX" version="22.0.6" type="google">
  <diagram name="Page-1" id="BonE7jH51KcKSG65cDbz">
    <mxGraphModel grid="1" page="1" gridSize="10" guides="1" tooltips="1" connect="1" arrows="1" fold="1" pageScale="1" pageWidth="1169" pageHeight="827" math="0" shadow="0">
      <root>
        <mxCell id="0" />
        <mxCell id="1" parent="0" />
        <mxCell id="vnY4tGYXonDJ2dKMF0AW-1" value="PC Host" style="rounded=1;whiteSpace=wrap;html=1;fontSize=16;" vertex="1" parent="1">
          <mxGeometry x="880" y="310" width="120" height="60" as="geometry" />
        </mxCell>
        <mxCell id="vnY4tGYXonDJ2dKMF0AW-6" value="&lt;div style=&quot;font-size: 16px;&quot;&gt;Bluetooth&lt;/div&gt;&lt;div style=&quot;font-size: 16px;&quot;&gt;HID&lt;/div&gt;&lt;div style=&quot;font-size: 16px;&quot;&gt;Peripheral&lt;br style=&quot;font-size: 16px;&quot;&gt;&lt;/div&gt;" style="rounded=1;whiteSpace=wrap;html=1;fontSize=16;" vertex="1" parent="1">
          <mxGeometry x="120" y="310" width="120" height="60" as="geometry" />
        </mxCell>
        <mxCell id="vnY4tGYXonDJ2dKMF0AW-7" value="hidlink" style="swimlane;startSize=20;horizontal=1;containerType=tree;newEdgeStyle={&quot;edgeStyle&quot;:&quot;elbowEdgeStyle&quot;,&quot;startArrow&quot;:&quot;none&quot;,&quot;endArrow&quot;:&quot;none&quot;};fontSize=16;" vertex="1" parent="1">
          <mxGeometry x="360" y="260" width="400" height="140" as="geometry" />
        </mxCell>
        <mxCell id="vnY4tGYXonDJ2dKMF0AW-4" value="RP2040" style="rounded=1;whiteSpace=wrap;html=1;fontSize=16;" vertex="1" parent="vnY4tGYXonDJ2dKMF0AW-7">
          <mxGeometry x="240" y="50" width="120" height="60" as="geometry" />
        </mxCell>
        <mxCell id="vnY4tGYXonDJ2dKMF0AW-3" value="ESP32" style="rounded=1;whiteSpace=wrap;html=1;fontSize=16;" vertex="1" parent="vnY4tGYXonDJ2dKMF0AW-7">
          <mxGeometry x="40" y="50" width="120" height="60" as="geometry" />
        </mxCell>
        <mxCell id="vnY4tGYXonDJ2dKMF0AW-5" value="UART" style="edgeStyle=orthogonalEdgeStyle;rounded=0;orthogonalLoop=1;jettySize=auto;html=1;exitX=1;exitY=0.5;exitDx=0;exitDy=0;entryX=0;entryY=0.5;entryDx=0;entryDy=0;fontSize=16;" edge="1" parent="vnY4tGYXonDJ2dKMF0AW-7" source="vnY4tGYXonDJ2dKMF0AW-3" target="vnY4tGYXonDJ2dKMF0AW-4">
          <mxGeometry relative="1" as="geometry" />
        </mxCell>
        <mxCell id="vnY4tGYXonDJ2dKMF0AW-13" value="&lt;div style=&quot;font-size: 16px;&quot;&gt;Bluetooth&lt;/div&gt;&lt;div style=&quot;font-size: 16px;&quot;&gt;Classic&lt;br style=&quot;font-size: 16px;&quot;&gt;&lt;/div&gt;" style="shape=mxgraph.arrows2.wedgeArrowDashed2;html=1;bendable=0;startWidth=24;stepSize=15;rounded=0;entryX=0;entryY=0.5;entryDx=0;entryDy=0;fontSize=16;exitX=1;exitY=0.5;exitDx=0;exitDy=0;" edge="1" parent="1" source="vnY4tGYXonDJ2dKMF0AW-6" target="vnY4tGYXonDJ2dKMF0AW-3">
          <mxGeometry x="-0.25" y="50" width="100" height="100" relative="1" as="geometry">
            <mxPoint x="190" y="360" as="sourcePoint" />
            <mxPoint x="690" y="430" as="targetPoint" />
            <mxPoint as="offset" />
          </mxGeometry>
        </mxCell>
        <mxCell id="vnY4tGYXonDJ2dKMF0AW-14" value="USB" style="edgeStyle=orthogonalEdgeStyle;rounded=0;orthogonalLoop=1;jettySize=auto;html=1;exitX=1;exitY=0.5;exitDx=0;exitDy=0;entryX=0;entryY=0.5;entryDx=0;entryDy=0;fontSize=16;" edge="1" parent="1" source="vnY4tGYXonDJ2dKMF0AW-4" target="vnY4tGYXonDJ2dKMF0AW-1">
          <mxGeometry x="0.25" relative="1" as="geometry">
            <mxPoint as="offset" />
          </mxGeometry>
        </mxCell>
        <mxCell id="vnY4tGYXonDJ2dKMF0AW-16" value="BLE" style="shape=mxgraph.arrows2.wedgeArrowDashed2;html=1;bendable=0;startWidth=24;stepSize=15;rounded=0;entryX=0.5;entryY=1;entryDx=0;entryDy=0;exitX=0.5;exitY=0;exitDx=0;exitDy=0;fontSize=16;" edge="1" parent="1" source="vnY4tGYXonDJ2dKMF0AW-19" target="vnY4tGYXonDJ2dKMF0AW-3">
          <mxGeometry x="-0.4" y="50" width="100" height="100" relative="1" as="geometry">
            <mxPoint x="460" y="550" as="sourcePoint" />
            <mxPoint x="230" y="220" as="targetPoint" />
            <mxPoint as="offset" />
          </mxGeometry>
        </mxCell>
        <mxCell id="vnY4tGYXonDJ2dKMF0AW-19" value="Mobile App" style="label;whiteSpace=wrap;html=1;image=img/clipart/Gear_128x128.png;fontSize=16;" vertex="1" parent="1">
          <mxGeometry x="390" y="470" width="140" height="60" as="geometry" />
        </mxCell>
        <mxCell id="vnY4tGYXonDJ2dKMF0AW-23" value="HID Reports" style="shape=flexArrow;endArrow=classic;html=1;rounded=0;fontSize=16;" edge="1" parent="1">
          <mxGeometry y="20" width="50" height="50" relative="1" as="geometry">
            <mxPoint x="280" y="200" as="sourcePoint" />
            <mxPoint x="840" y="200" as="targetPoint" />
            <mxPoint as="offset" />
          </mxGeometry>
        </mxCell>
        <mxCell id="vnY4tGYXonDJ2dKMF0AW-24" value="" style="shape=image;verticalLabelPosition=bottom;verticalAlign=top;imageAspect=0;aspect=fixed;image=data:image/jpeg,/9j/4AAQSkZJRgABAQAAAQABAAD/2wCEAAoHCBYVFRgWFRUZGBgaGhwcHBwcHRocGhocHhoaGhwZHRocIS4lHB8sHxwaJjgmKy8xNTU1HCQ7QDs0Py40NTEBDAwMEA8QHhISHzQrJCs0NDQ0NDQ0NDQ0NDQ0NDQ0NDQ0NDQ0NDQ0NDQ0NDQ0NDQ0NDQ0NDQ0NDQ0NDQ0NDQ0NP/AABEIAJUBUQMBIgACEQEDEQH/xAAcAAACAwEBAQEAAAAAAAAAAAACAwABBAUHBgj/xABMEAACAQEFBAUHBwgJBAMBAAABAhEAAxIhMUEEUWFxEyKBkaEFMlJUscHRBxRCkpPj8AZicqOy0uHiFhcjU3OCotPxFTNkwoOz8iT/xAAZAQEBAQEBAQAAAAAAAAAAAAAAAQMEAgX/xAAjEQEAAgEEAgMBAQEAAAAAAAAAARECEiExUQNBE2FxoSIE/9oADAMBAAIRAxEAPwD0f8qvyjs9hsg79Z2JCIDBcjPH6KiRLaSMyQD5H5V/Lfbbcn+2Nmui2coAN14dY9pqfKB5RNvt1rj1bM9Eo0AXzjzLlu4bq+aNdXj8cVcsMspmWt/Kduc7a0PN3PtNV/1C1/vX+u3xrLVitqhnbV/1C1/vX+u3xqfP7X+9f67fGs60y2e8xN0LOighRykk0pbN+fWv96/12+NT55af3j/Wb41nFMs3uz1VaRHWBMcRBzpQP55aem/1m+NQ7W/pv9Y/GkxVxSgfzp/Tb6xqfOX9Nu81TvKhbqiJ6wBvGd5nGKCKBg2l/TbvNF85f02+saVFSqhvzt/Tf6xqfO7T03+sfjSqkUU755af3j/WPxqjtb+m/wBY0mKoUoN+cv6bd5rTs9lbOt5L79YLCyzSQzZDGIU41jitmxeUWs0dAqMjxfVg0MACIlWBAxnA6CpP0QZs2w7Q+Ko8YwSGCkj6IJEXpBEcDQNsm0Bgty0klgAFcyV86IGMQcq6b/lESl4CbZgA7FRdIBc6N+eYAVSMZLYUh/yhtWF1lRlIusCHAcCLoIDiIgQRBwxJkz4/10uzFtWz21ndLh1DBSpMwbyhoBOBIDCRoZrP0zeke+n7X5Qd1usFAlDgDhcsxZLEk4XR31kr3H2g+lbeanTt6R76WakVUNFu3pHvq+nb0j30qKuKKaLdvSPfVdM3pHvpdSKA+nb0j31Rtm9I99DdqXaInSt6R76vpG3nvqRVRQWHbeal9t5qquKKl9vSNTpDvNSKhoJ0h3motqwMhiDwMUJqUR2/JX5V7Xs7Arbuw9ByXQ8IYyOwivXPyT/Kez22zJAu2iRfSZicmU/SUwYPDGK8Hiu7+RPlE2G3WLgwrt0TcVeAB9e4eysfJ44mLjlpjlMS99qVVXXI2t+a/Ktpet7dgQQ1takEZEG0cg1z8CTMwCQBJAw1wrXtyBLW1UZLaWijkLRgPZWR7M5qY3yJHOu+OHN7dDafI5RSxuEDO67Nu3aYjHLvE4bPBroyIwnGDIGe7EVnAOQdZ5fzVosrOJJMk4bhG4ChL6HZvJNmSqkAkmLzE9+BgdlFa+S7IKpC+ct6ReBHWZYz/Nrkjyi6jEqY1Mjvxq18sOwKqyCc4x99erx6fN+D/ovn+i2bZgzlGJIWZjAtBAGIyzxjdXY2fyPZtEIuLBYglsQTMSMMN9fP2bspvKcccTjM4md8mnN5VcZlBzn40uK3aeXxebLKJxnau2vyhsCKpZBdK44TDAZiDVbDsiMt5hOJAGggkZanDWstttz2qgMylRkFHLMyZGAwobLaHSbpEHQgkdkERUuL4Ph83xadW9/x3n8k2YVjdUxcyEg3gDnOYmIj2GOJ5UsRZnq4AqTBnAgga4xj4VX/AFVwcGQHkZ/apdtaM5LObxOegjcBVuPS+HxeXHK8p2/QbJsqu4U3iSGMiWY3VZoVZAJN2AMMSKPbNiVIhXWVvQwKunWZbrCc+rI3ggwKxGwYZMI/OE+MiisXaGRbYXW85VGeIPpHUA5aV4d0C6SQoJ9KSMJumOya6Pk3ySlqJJKy1wQrvjgZYgwi4jEnfurA1gLoAwjI6/xpLWRGdoo5rH/tSSDtoQISVOAOBE3XExIneMQaqAS16TBIA0ww7aiFnu3rQME80CABlxO4d1Xa7OSZVrpOeEg9m+qjo7T5IREvgE5Rhg0kDDHjPIVyy928AfokidCDGe7EdxoBKGRbKrDLCCP9VPVb15na+z+cxjHuqQsj2bZ0ZgHe6Dm7Bmj/ACr3Yb6ZtewKhhSH6oYshJu4nAkHA4TyIrH81bR8OKye+RVWbkSvTgBswAATnxO895oDDXroJ9KSMJum72TnXR2DyZZ2gJa1srMggQ7MCZBMjhpnmdKwPs4IABIjI6j4zSWsmGJtFA4r/NSSDXS6AwBWYwxggxv551Uhib2MEgDTDXDWqS0Z7oa1vhPNXRZjISfRHcKu1sCTKtdJzwkHjEjGqkt9t5NswpK2lm5ASFQksbwUkc1kgxPmmsJcpeGOAkT9EzGM6YjDnSwGQg9KqnQ3YI5danIA15i18t5zGDPdkKkKZseyo7qjuqTMu5N0QpMmMpiMN9HtmwIjQjK4ABvpegEibpJAxGulYzszDAPhxEnvkVaWhUFenABwIXCZic2I0GlARtSwUE+lJGE3Td/jWrY9jsWV2dwlwSFiWtDiYWWAER4ikPYAqADEeaR+MZpDbOwxLgf5f5qoayXCCFKgkYYwRIGvPOqADElscSANBBjKor3iL1rfI80TA7MTuHdV2mzySVa6TnhIPGMMaI1Wuw2QRCjK7t5yBSCnnSMc4ujEYdasjMUDDHACJzWTdOemM99CoZCD0wU6QsHs61NQq16Wvs3nkxJ7BkM6im7Fstk7qto4RTm7Aue735Cau32JBimICqSwjAkYjDdSVFoqlFtSEOJUiQThniJyHdSQSsg2uBzCiJ54mgIveKg+iSdLxBu92E9tdR/I9kGRemsCHQOSD5mUo352OXA5VybW6QIJBGRGnDlSsf7wdq/xoN+27MtkyhXRpALXDKSXZY5gBW0z5Gm7EYtbM7rSzP6xaxWSalr26MBWrZm66cLRP21q+kfpapUqVwuh+afKZ/t7b/Ftf/sascXuQMAb417/AGVp8oH+2tf8S0/bak7PGK6gk9hMz4xXd05kaz6oN5TOF3EkRvBERyJpSPdMHKCRwjMVrZBHH/iPfWK0F5iBoCJ4nTsjxpIZc1Ofs4CmbTYgNEzEQYg4gHDdnR2ZDCfwDupm1KgJK4LCnHQ3QWxw+lNXZWRXMR9KbvvnurZ5J2AWj3L9zCZ1JkDPtnkDXPs2wvaFp/yxdn311dhRC6B4uT1jJGEaEa7tJicKnIw7RZ3Wa6QYJgjJgOVRmvZZQCeM5Cqt2urxOAG81ez9U3TqBHEgRH440GrZ9jU2LuXClCoVMJeYnCcgCNDrurInVI3ExGgO8V0LOzS45bzurczmb3WEZebOJyjiK59uwvKozBvHgBlPM0Ei9iezhx51s27YglnYvevdIjMQY6pVysRugDHXHkM2zQRd1XAjhoe6t20WVmEQoxLkG+CIgyIA3iCceE4ZUHPS0Kgg4xEcjgB307Y7BWdQ7FbxALRJxy7JjlNY2a8WZcQIA43TePjhXQ2e610nFZE8pE6GMJ0oA2/Y7j3bwaACrrrImR8OVI6UsAMiZmNIMGO2te3XFZyp6gOGfdjiccONYLMXbrNhN6eF43hPbh20D7CzXEFioAJECZbQYZY5nnmaS3V6w/zcRr211NkskJa+xUXDdgEy2EZA8TplnXP2uIujNsI4anspIp+sSDkMI3nMzWt9g/sFtQ4MuVZNQNDxyM7urvE5bMi8wOvWHHKR2e+tlxLmXXvZ44KFxB0xJEa9U8KDDZtdMfRIJHCMwOEY9lUonrHP2DQCrcBngZAGeZER3TR7ObyxqMCOP4xpAvaLJerda+LqkyIutqBy3ilhyAR9KQoPPEHunurp7fZ2YudGcOjW/M+fLXvO0i7lhXIJmXGQYEcVAuz3EnuoNGzWN51WYvMoJ1xIE8TQFDmPO0+B4Vr2MIWQvihOJEnA64EEgZkDEgECh2t0UsVm7JuA+dEm6DvMRVGZnvQBldDHtyHge6nWVlIfGLqyNx66LHcxPZWdBcK3sioWdJEx3ye6unsypde/50dTzs4bKBE3rmcCC2tSBzwLhBGRMEaY5Hv9tVN4ycgTHCMJ550e0EEhRnIJ4AGfbFDs0SUOYJI4gmZHsoGvszxLI13eVMeIik9IUBGcCR7I74762XVgZzriI7BGHfWO2F+9d0EA7zMnskCki0SNcTmTPeYkxyp+2bIquVDh4ydZ3aSBjVbO4YAjt3jeOdP2gIskHqgZn/8AI9lUYGtCQFyJkN2YGOeHfUVYw0pbYQxEYte4Bt/KBWtUqQSUqEmBmcKauyveChGvTdAg5yBHeQO2jVYMjMYitR8qW0g9IZBDDBcCCCCMMIIBG6rKU5ZW7jljBHhPMU6zbrKfzl/aFL2h5MHFmMnvknCiU4jmPbRX6cqUE1dcFN35m23/ALtp/iP+21ZXjDOdIzrTtZ/tH/xH/bNIsxMnie4GK7vTnLYscCzxulR4gTRIYEBYHMV1LbyM6KzkpCzkTiASCRhw7ZGtYLtIhZksCTIJVvb7jVWiasWbcDEdwAntqWuAJ3Y91Gokk8Y7v40ImU6Q+j4iqVPRZlG4Rh2EYVvfyWwsukn6KsRBgB3uL18i04xunGQQOc7XTO8GewSPfQS6FM9Zm3nT3Crd5EMpjv8AZjTtmsJKKWi8QCxyEkAseGNa9v8AJT2KoXIlp6ozBUAOp4q5uHiDUHPCNGDtHMZc4mqRgvmieM58ZOdDqU0vAdhF4jwNb9i2TpHCXgohjJiAFUscyAMF1IFPsYjBImVOhB8JHsqrRD9N2I3Ye4Y0x7PMab8uR4Gl2TFoJ0UHtOvh4mqWtXjJcOYHhVqoJN1mU6xh2wcDzrfsnk0ulo94DowDGEnqu2+foaA54wASOe4iDuI7iYI/G6kiyoBBYsx0n2xgBzoja718QfCgQTJ3k+BgfjjWq12QKiOGJLlurdiLsT1pxzGlC2dEw6rMo3AiOWIMVSkKTALHUk+En2ChZrpaNVntBifHwpqIBAOAGZiYGpjU+2kFhZwR1lgb5y4yMRzqNZnV2jdI9sT41q27Y+jcoWDERJWbskTAJzwisS6LuJ7hiB4juookeBCrh3fxq8GM4q28HE8JGfKtOzbGXvR9EKYiSbzpZ+F+eyk7XYXC6zJUsJ3lSRPhSksDoPpszbgdewDGrFqfR8RQr1iTuAA7RJ9o7qemzSjPPmsix+kHM/6PGkFkogMlGZDqBhjyOFS6FOrNxOXuFWwhlO8weUE+0UNksqG3499C1vaSIZZHAz4VEs8Oq7BdwOHZNdDbPJ3Rib0w1xpUqL10N1CT11g54aYYiuY+ErvK/wCowfZ40+wasFwUTvM59pxNRmDQGBGOBnI/pDEVo2TZb7okxfdVndeYLMdtTatmVWKhw64dYRBkAkYEjCSMCRhgafREkukDrOxG4nDlhnVdLoFAHEx4AYUtDJUHQHvm7P4310fJ6x0uBk2TAQCY6ySTGQiVn84b6DAAGM9ZW1gxPuarZQCJLMdJM9u4c6u0SBOox+PhQoJLHiR3YD8caAumPojsOPcRUSzH0WZRuBiOw5VsK/2CiD/3XxgwJSzwnKTExwrDbG6SRqp7xEe00FOTkHc9oA5ZUvr7z9b+WnqkCK03h0QT6XSM3YUQDHmppRbHZEZQQeOJPGdacTSrVYE6jH4+FMfI1R+mb1SkdJUrkpu/N20Hrv8Apt+0aUjhcDgDiD7QaO1PWb9JvaaSzTgO07uHE11enO0ArvHhWjYtoRHR2VXVWDFCYDAaE6VzDYD8Bf3anzcfgJ+7TddnT8teUxtDqFQKozjEZyRMAGeAwxrGr3SZ804zuPHhSwCMj3gR4AUYfDHCM+FIii2ltq6l02huZ3b5u5zN2YzxyrKvXa9HVAgTrOZpd2TMBewTzJOVGHI4jx7Iz5UDrK1Ci6xgjAE5MNMd/Cit9pXV7xxgTeJJMnvOJNLdxG+cuNJCcY/RAHuxobCVDBP0ib3LcO7CtVhtQkEMUYcbrDTA+8VmV4wOuvuPxqWxBwgE8cQKA9o2gGQpvMczmBOpOpoB1CCBIAgjWND+N9ACRkfAR3R76Yjzhr7aFtCbSsSHAH6UaEZb4JHInfWVnDkXfNBmdCdAKFoOMDnAk8qiuRrPOPaBh41DYauEMNkTIO7eD7ZpzbQgGLCNBM55wBS74ie/4Uo8rvICe0xjV/AapekkQCIG+N/OmWduB1WIU8cAeIPupS2hGeI8efGjtHwjMnT38qFm2+0rob7bgZPadOZrPcIAIxYEk8Scx4+AqoOhjkAB3R76NXxg65H3c6fpfR9htagyrlG53WG8b6TbWgbqriDmwyA3A6k5ULkHCBxJE9g40KkjU+Ed0D20NjCbpvRKkQQNIyMeHdTl2lI89Y5+7fie+lI88x+JpTNOIw4wJPGTT8U0NeYEDqjKcJOUxuqrO0CdVsFnqtpGcHdQKzDWeBjwIAphtBE/8zuoh77WpABe9AhRN6BuUaCs5sywJOBMRwjKl4745Ae8Y0a2hGeI36jnGYoG2W0j6RuMN+GWoNR9oBwTrHhkOJPuoLVtIk8chxoVRoJDEAR6OsxhEnKm4jIVulcSuY3g59uta9l21AHlvOQrBgEG+jgkH9DxrMlpjBz04/CgdpOGW/M8Ymn4Gu4bBfN1OhjQb6XeuMSfNOM7j8DRWlg6BSZAYSswQRgZwxGY76iWmBJwjP20GpdssxZlbwkuGwIyCsAIGMyx7hWUi8SSIEQAc4OZPhQGTj5vAR4mqg+ke8fCm4KztAvVYwRkTk3GdDwrX86S5cJXBrym8MARDLyJCkbje31hKnee+q6Pifx2U3NjncMYGWZO/gKt8jypaMQYOI0OvbTLTI8j7KqS/RN+pWe9V1ytn58fM8z7aCxGHaZ350TZnmfbQAlTIxBzHvFdTF1lsNmIJv2kjTDHERHV3TP8MVizsIMl5BaCAIIk3ScDBiJ/BHPG1Dc3cPjU+dD0W7v415uO1o/akS+3R3rk9W9nG41jfziP0Z+tTH2qfNQzxgD2zQomBkyTmfhTkqmvZbJC63zCSC2ZN0YkADUxA51Nts0Dt0ZlCZWcwDiFM6ibvZWdbYrgQW4iJ7QfdQu7PgAVGpMTHACrZQdnEld0NH1h7q6fk+yQlw5UC40Fr0K2EEKsXjmIkZzjEHAVwEYRlR/OSM1afzYI8TTjYKt1hCTu8dPGis1ktvve4VGlyCRCjEDMzxqMCDeXkRv/AI0HS6Oy6ATd6SG9O/evi7+ZcuTOsxXJtBBEZw3s+MUw7QdEaeN2O+aFEM3mzO7IDdQWidURuHsrd5UFmXHRLdUIownrNALNjxPhWBHZMALy7tRwE5io20MclI4tGHYM6FA1jS8vfHxu10dgRL/XAiGi9Ny9dN2/dxuzGXDSawLZi6QdczrO+jW3YYEFuKx4gkeFT9Grb7NBaPc8ycM4yEgTjAMgcBWHZ8SP0BHeZ/8AWid2fCLo1mLx4YZVHU4EGCMvgeFB1tgWwu/2oJa+YgwAvRt52BkXowBBrlWywO1f2hVrtJGaNPArHiRVSWMthGQzjiTvqiWCyD+k095jwitj2KCzWCC5diYmQl1AoMiJvBzhOBrFJUysGc1OvEbjR/OW9Fp4lYHcZpBRW0YTHoN7v41os0EjdI7v+KWi5k4k57uXKhs3KYAXl0gi8OGOBFB0vKqWZtCbHBPoiDeGJm9OZnEEYRdyyrl6jdfP7PxmnNaswwW7xJE9gE+NUbMXbuW46g5zzmg0bGilocgAo4BMkBijhCboJwe6cqRa2YAOMjHHQ8caEWrDNb3FSPYYjxq+s2YujdmTwOlLKDZgkmc4X2fGa0IhgxlhOI4xhmdcqTaDEEEBhv1G40xdpYArdOJBwKxImMc46x0oUC0WCvP3GaXs6yo5eOvjTVUk3midAMgPjxpYMMbhBBxKzrvFPdhxsCACdcRliASPaD3VmtsCf8k/WPup3TNoscyI8CZqgoAM4zmTrSdzgwJUuVnS3K4YMN8i92yYPOj+fjce9P3quqCj0QSL0xImImJxidYreo2bHq22ZjrJMYx9HDjy41yfnw3H6y/vVXz5fR/1J8akzElHbYqw12QPozE8JjWaXanqtyPsqXixBMRoB7Sdalr5rcj7KI956SqrJfqVz01eInM8z7aXF7l7edGdeZqWGXIn2z7K6GUAuL6K9wqrg9Edwrsr5VcRdSzETkhyJc3cWyl29mVc9xJJjMk8BNIGbox6I7hU6MeiO4Vpu1LtWhnubsOXvGtS/IEZnDlGdNZaRY6E5Et4xHs8ahAxZzpPMSfGq83EZajSOA0rq+TNpFkzN15KFQUa6QWwJyN7CcN5BzArmbQIU8cBzNBHJJgZax7OFVc/NHcPbRWIxI1wPgB7vGumm1RYNY3TBe/evfS6oAiPNgYjU3TpFFctDBjQ5fD8bqE9bHTQaRv40VoOso5k8oI99FYKCoG4XTwIwp7CykaRuIEdoIqX8DOY8ZyrqeUdoFoQ3XBx6rPeRchCLdFxcMpOAA0k8l82IyBX/SST7fCnBC7m/E8p7twqXYyw8PDWt+xvcdXWDBB4EajkRI7arbrQM7OQFGg0VRgqzuCgDspQxG0kCMz4DX4VS2RMwsxicJgbyd3OqshBWfpAjtJvAV3PJG3dAXN29eAGYGRmDKnAjAxB3EVBxJjlr8Ruq2Mk7h4n4Ue0JCxqcB+OVVY5sNZnsNX3QDo+HHIcpywxokaDB3SJ4ZiuudvPQdCUBhboacR/bdKeYOAjeJnEg8e2WTd4Ge0QKChjiRnkN3ZvqXOEccvGn7G+KtHmkGOIIkeFdHyn5Qa3C3kVbrO3VESXKliR6UqSTljgAABRHK6WBxmO3f3Y0ezbPfdUvKpYxechQObHLkKzufpaBgeyLpPie6tllZSQJAkgSTAEmJJ0HGnKyS6FSQMwSMMAYwyqPaTABzE9mlNeAJ/HKs6LBAOqgdo08fCkjRYbLfR2vItwAkMQC0zgvpHDKlKYPA4ct0fCnpZzOWGPPECBxxnsNLthkN5B7AQTSkLY3p3TAGnM/Cn2uyqLNHvSWLC7Hm3YxBk7xoOExNJ2cZrqCe4mQa2vZgInWJYljE4KsgDDRiQTyA30GFXuzOMCRvjd3+2oE1OJ9nLdUt1m9GgjtkNHgO+m2ZDAEZGkcqC7Uin3aq7XqgmKJUJyBM5RJnIduJHfTbtbk8pWihQCouxHVGgUTzhQDUlHHIu9YZajSN/A0Vr5p5H2U/b7QvLMZZsOZgCe4TSLTzTyPspBL2PpalZL9SsWlS8mPvPtoWGoMHf8as5nmaFVDGTiBkNOZrWWcINobIMh7D8aK+/5vcfjRwCMpETvETE8BJAnjSi10kZiJG/l+N9FsRtWGZUdh/eqLascmU8gf3qlmmOUscN5ncKJ1B579RTcsBQt5xw3AQO3fROy5EjlQK5IjWYPZr+N9dLZthQqCLVFJjAmD9Obx39UfWFBz1LfRYEcRPiDUVDMsbx00A5Cn7dYKhlXVjiTdyMEiOOAkHiKTek8InnOVBTkelBGWOIqyz+kPq4+2K6FnsyXLxtFBIaEABiL0A44TA79a55F0iMjhG48KCIgWccTmTmaFmEyrgHsg8xrTExxOO7hxpwtKtFsjWrHAusfmiD3zVo6gQCI51q6Sp0lSi2RXu+Y4A3HEdm6oXvee4PAQB3a1r6Sp0lKLZWZSIJFQWjDJxHESe+RWnpKvpKtFsqssyWk7zHcBpUdlP0oIyIOIrV0lTpKUWy9I394OwCe+fdUV1GvxPOtXSVOkqUWxkiZVrp1yIPMVZefOcEbgInnWvpKnSUoshGByihVCvmtA3ESBy3U20APPQ60m/MDKZnswI76CywnrPJHIAdlMZQw3j8Y1s2CysiJe0CYxAEmI87Pw4aYThtQBiN+PEZThhNBYDj6eHEAnvqkdR9KSdSai4kzkMI3nOTvrpNZWVwnpZMNhdzNwFRM5XiR2aUHPezBxkgjIjP/AIqANq/cAD30KmDAyOXA7uXwphq0iIoGVLKEElTdnPceMGmBqXtB6p8eU4+E0kAbdvTH1f41Xzg+mPqxT7LaFkYwuE3YJA1gSATGlHtu0IXe5e6OTdDwHu6BoJE6YGvK2Tef0h9UVd9/TH1RQ2XmjlRzXqksIXGSZO8/jCpaZHkaKhfI8jRJendIKlc7peNXWLa3w23WNy1tEOaWjp9V2X3VmsnuniDPjIr7v5Uvybawt22lFJsbYyxGSWmRDbg2YO+Run4R0nnXvHLVETDPKKmm7aPK1q6lGaVOYxP074zJyb31zn6xMaCO04x4DvqCzO89lNRQBAq0kL2baWRldDDKZB3Gj2jamc3nOIETwBJHdMcgBpSWs5yMVBYjUk8NPDOqFiYvbyT2HAewVvNqkCHMyJ6oiPpaYkUmlGw3Ejx9tKoP220W7CsWJ4AZjCIHOk2JCsATAgY8hHuFRLEAziTvPuo3QEQalSrQbVNGbMZgZTicBums+0uGcBZIEHHOBv7aWbD84+Hwo7NAuX8TVqQCNAjdhV3qt7MHgd4oehPpHuFN0Xeq+koOgPpHuFQ2B9I9wpuVI+kqr1D0B9LwFToT6XgKbpQr1S9QdAfS8BV9C3pHuFLkoV6r6Sg6A+l4Cq6A+ke4U3K+zOkqr9CLA+ke4VOgPpHw+FN+lqR9JU6Sg+bn0j4fCp83/OPh8Kb9JQjaRnVLKlSZGc7xJkVaWIG8nj/CmkTSlg9toWD17SYMdbCY6vHOkbXahgFUsZGN4k46kY5UroNzEcMPeKJLMD4nOlLa7BwrkMzKDjK55adtaxtClj17QLp1jxw9kVkZAc6Dofzm8PbE0osbsGeQSQNWMnLInv8AChQq0lhOJEHIQYyo1WBApbWIJmSDw176UjXabLZizRwyMWLAoJvpEQWka6ROVYneJunCB2SYq/m/5zeHwo1swBGc5zrSltEsrPAFRE4mJPExryp23bNZK7opV1UkB1F0NH0hjMVm+bjRmHaPeKsWG9ie73ClJYVMkBsRE88Yn8b62bLs1kyuWZEKLeAYGXMgXFgHra7sNM6zPZg9mVAbH84+HwqULa6CLojGIGRo2BggZxhxO6gSzA3nnX2nyc/k021W62zL/wDz2TBixyd1Mqi74MEnhGuDLLTFysRMzT7H+hr8auvQ6lcvyS30FW1irqVdQysIKkAgg6EHOvgfK/yW7K5LWNo9hn1RDoOStiBwmKlSvOEzHBnD5e1+TZgY+dg//F95Qf1dt60PsvvKlSttUsqUfk8b1ofZfeUJ+T9vWh9l95UqVYylKB/QNvWR9l95U/oG3rI+y+8q6laXJSv6Ct6yPsv56jfkK3rI+y/nq6lLlaUfyFb1kfZfz1R/IZvWR9l/PUqVLkpB+Qzesj7L+eiH5CN6yPsv56lSkzJQ/wCgDetD7L7yrHyfN60PsvvKlSvGqUpY+T1vWh9l95RD5PG9aH2X3lSpTXl2tLHydt60PsvvKsfJy3rQ+y+8qVKmvLsoY+TVvWx9j95V/wBWretj7H7ypUpry7KhP6tW9bH2P3lT+rRvWx9j95UqU15dlQn9Wjetj7H7yrHyaN62PsfvKlSmvLsqE/qzb1sfY/eVY+TNvWx9j95V1Ka8uyoGPkuPrn6n7yiHyWn1z9T95UqU15dlQIfJYfXP1P3lQfJYfXP1I/3KlSmvLtahP6qz65+pH+5RD5Kz65+pH+5VVKa8uyoGPko/8z9SP9yiX5J//MP2Q/fqVKmvLsqBj5JR6432Q/fqx8ki+uP9mv71SpXn5Mu3rTBn9USeuWn1E+NQfJHZ+t2v1EqVKnyZdrph1PJ3yZbFZQX6S2I0doT6igA9s19pYWK2ahUUKqjBVAVQNwAwAqVK85TM8vWMH1KlSvL0/9k=" vertex="1" parent="1">
          <mxGeometry x="89.53" y="160" width="180.94" height="80" as="geometry" />
        </mxCell>
        <mxCell id="vnY4tGYXonDJ2dKMF0AW-25" value="" style="shape=image;verticalLabelPosition=bottom;verticalAlign=top;imageAspect=0;aspect=fixed;image=data:image/jpeg,/9j/4AAQSkZJRgABAQAAAQABAAD/2wCEAAkGBxAQEhAQEA8WEhUQFRUSFRASDxAQEA8QFhEWFhURFRUYICkgGB0lHhUVITEhJTUuLi4uGB8zODMsNygtLisBCgoKDg0OGg8QGi0lHR0tKystLSsrLS0tLSstLS0tLSstLS0rLSstLTc3LSstKy0tLSstLTcrLS0rLS0tLTcrLf/AABEIALcBEwMBIgACEQEDEQH/xAAcAAEAAQUBAQAAAAAAAAAAAAAABAECAwUGCAf/xABDEAACAQIDBAUKAgcHBQAAAAAAAQIDEQQSIQUxQXETUWGRoQYiMkJScoGxwdFTkgcUYrLC4fAVIzNDgqLxNERkk6P/xAAYAQEBAQEBAAAAAAAAAAAAAAAAAgEDBP/EACARAQEAAgEEAwEAAAAAAAAAAAABAhESAyExURMyQWH/2gAMAwEAAhEDEQA/APuIAAAAAAAAAAAAAAUuBUFrqLrXeix4iC9Zd5mxlBHljaa9fwZY9pUl63+2X2HKe26SwQXtal1v8rLHtil+1+UzlPZqtiDW/wBtUuqXdH7j+2afsy7o/cc8fZqtkCNQxkZpSs0n1r7GeE09zNllZpcADQAAAAAAAAAAAAAAAAAAAAAAAAAAAAAUZr62MpLR1Iq3DMrmwZxFemm9eMvrc553vI2N5V2jR/EXzItTaNL2/CX2I88JTS9BdyIWIoQipScFZJvcieDeSdPH0/a8GRam06PtrwR8b8q+jlUl5kb3d3lW85Wrh4exH8qHx/1nN6Gntegv8xfmj9zG9uYf8WP54fc87Sow9ldyMcqMfZXcPiOb0X/b+G/Fj+eH3Njs7EKunKknKKveacXDTerpnmHoY+yu49DfoaoqGx4SXrzxEv8A6Sh/CZlhqKmW3cYFf3cfj82Zs+V3XAx4ReZDkXTJjU9O+vWVLKPox5IvPS5hQqUAqAAAAAAAAAAAAAAAAAAAAAAAAAALZvRnGSWsef8ACzscQ/NlyOPqPWHP6HLP7RU8JVeRpvKHEqFF9vy3s2deZxHl3jsscqfD5lJfOtrV805PtNTMlYiWpDqMpLHIsZWTLWwKHov9GlLo9jYKPtU5z/8AZXnP+I86XPSfkcsuy8Av/GoPvhGX1OfU8Lw8uqw682Pur5CfEuprRcl8iyXH+uBzWpSxTjo9V4o2MJXSfWrmmkbimtFyXyOuFtTlFwAOiQAAAAAAAAAAAAAAAAAAAAAAAAAAYcY/MlyZxmInaVPm/odhtF2pz5P5HD46dpU+b+hyy+0VPDPVqHzPy5xWabXa/DQ7+vW3nyjynxGabfW38y0Vz9VkebMk5GCTNYsZQNlrYaVHZPk/kenNiUujwWDp+xQoQ/LSivoeYar82XJ/I9TUIWpUY9UYLuikcuqvBvkYp7mZWYZ7n8fmc1I8jdmlW9c18zdHXp/qcgAHVIAAAAAAAAAAAAAAAAAAAAAAAAAAIm1f8KfJ/JnzzygxCp9C3xk14Jn0TaUb02uvTwZyO3vJGljIU4zxNSk6c86lSyq7ytZXmTutTjldZqk7OQxu1I5ZO/B/I+bbYr5pH1XGfoxlJNQ2po+E8PGXipo0GL/RDjNejxdCfvKrT+SkVzxTxr5lJmKTO7r/AKKdqx3RoT93EP8AiijW4j9HW14/9k5dsK+Ha/fubzns41yTKo3tbyL2pHfs+t/pgp/utkCrsDHR9LA4hc8LXt35Tdw1WsrPzXyPV0V/hrtSPLFXAV01GVCpG7StKjUW9rrR6oXpw976nLq/isG3bMFTcZmR6780la2j6Uea+ZuTSYGm5VIvq1fYjdnXp+EZAAOiQAAAAAAAAAAAAAAAAAAAAAAAAAAYsTTclZdfE19XB1OEb8mvqbUEZYS92y6cjPaFHjUS968fmWfrdOXo1IvlOLNrj9j0Xfz7XvpZSt2cDnsR5Np7sr8GcLhYuVMdR8H4lOml7T72aDFbBlC7Tcfdn9EQoxn6uKly6Tt6mybGus6eftfIuWJn1+BytOpieFe+7eovjyJCxOJXrxfOK+hg6SOMl2eJmw1XNOF1ufec3T2hUytt07rdFOzenM2OzMVWajU6KOma6ztPTRW01NkHV3I9RN2Vr9hr57Wa81pZnuim5S7jNhtt5VrSu3van/I6YzbLW3wOGcLt8eHUSzWU9swe+El3MzR2nTfFrnH7HaaiKmgspVFJXi7rk0XlMAAAAAAAAAAAAAAAAAAAAAAAACjZUhbUq5Yx7X9DLdTZGSpjIrdr4IjVcRJ8bdiNdTxymrrxi4tW607Mu/Wl/TOXOr4slWdt5AxWIn6qvyJM8RFqz8VoR5UqXBJcvNfhYi5N05vaFSu7+a13mkqUHd54u/tLf8es7x4dcJNf6s3zuYp4S/FP3oJ/KxN3VPn0qH7Uu5fYrKlTS9eT5RS7953NTZ9/Ug/jKPhZkeez4/gN+7Km14tMnjTbiZdLJpU1KmlrdSldvtZ0Gy9nYuSTq4mpCn78lm7IxW83uHwlOCUo0nm65rSPJcWVqRlJ3eva9/8AIqSstYqEY0llpK198m7znzl9EZ4K5WnhyXQw7bskdJ2YrSRMp0bavf1dRkpUMvPrLpGsbDZ/ofFkkjbP9Bc38ySdZ4QAA0AAAAAAAAAAAAAAAAAAAAAA1e3tIxfbbvX8jZTmkQNrw6Sm4pXd0+p8yMrNabHNrKtyS37u13ZTpbaX3adbMWI2bUW5zXvQzLvViBUhWjwUuUrPxsee10Ta+LhBXnNRV7XlJRV+q7Kxr31TunxWqNNWrXTjVo3i96nTzwfPejW1djbMqp2h0MnxopQ167xaaZjdOr6YuWIfX4nJ0tmumlGjj8SrPRzdKtp1NVFJ2+JspSqdBNdLepGDfSKEY3ktb5dUuQG8WJfWZFin2HGYfaOJ4zjK3t07fu2JtPatZb6MZdsZteDTA6pYlPh4l8akOo5untpetSqR7bRkvB3JFPbVB/5mX3ozh4tWN3TTpcPFS0XA2EIKKsjVbDqqalKLTTtZp3T1Zt2Xj3TVkjFIyyKU6bk7L/hFpTsB6C+PzJBbTgopJcC46xIAAABQCoAAAAAAAAAAAAAAABgxOJUFuu/ZVrkfGbQUbqnaclo0pxWXv4mixOIbtnus34tLvtKOhzyz14VMUqpis0rzcld2tujp+0uXAp+u1G7wyyTu0lK0n1Xvu8CHCbesLu+idOop5Y9eWW7gWzknvy+ylODhbrebdc4rbGntGWilCW7eo3TfUmv61Lv1ylKymld6ZXlbT6tTW3au1nWmSLjJVE+3XXjwXApOte93CWVWtOOR5+T14owbGWEw8tcqV9zTcb8uDIeJ2BRn2+9GM/oYXBR16OUcsb3pzuk+rwXAunVSby1cl1manBq/W03Z7l8gIFfyUXqO3KU4+GqIkdhVqbfpSi04tWjO6aa3x5nQLEVl6sZXWijPxtLtMkse45c0Gk07tp6NPTdcaNuJWxnCTfStN6WnCS3X7e3qM6wM+uEv9Vv3rHYxx9OSeqeuW2ju02t3wfcUlg6M/USdr6Xi7O9npyY03bjnRqR303zV2vsWqrHX6/bQ6yex4+rOUedmiPW2TN78s11Pf3MwPI6S6FpcLLxkdCaXYeD6FVPMyXa04PzpPThxNzBOWiX9dZ0wTSMHJ2X/AAbCjSUVZfF9Yo0lFfN9ZkO0mkWgAKYAoVAAAAAAAAAAAAAAAAAFlRNppOz699i8AcztGo4yfTYPpIr/ADoQWa3W8rzIjUcVhZv+6xM6Ut2Sbzpc4z18UddYi4vZtGqrVKUZc4pvvIuCpk0MsPpeVKFZfiUvT5tb78jCui3Rrzg16lTzkvz/AHJ1byXprWjVqUX1Rlmj3SItfZuOhxp4iK4TWWXjdEXCq5RieGkvOSpztfWEnSm38L3vpxMcm45FPPFau04KpG67Y9Vm9WYKtWEP+owU6f7UVJx/2Oxmw1bDT/wcTKDWls0ZLffWLIuLVsLO2XLLM7vo5uEtLerw3LQzwq2cs+eN9POhmSja3pJPnr1ltXBzldtUq9+LTpz3rmr248i2NNwTllq0smW8XPpKbV9eLv8AC28wZZwppR6KKzWWVx081Pe7b+O8xwWV2UpwW95o5knmvvXjrxEpUKySg4zlrJXm4O7b6tdWnw4F/wCqSkouM3S3Npy6SLk20rJ8Hf46AWxlmWaShNXskrZs2Xc73e/t0uZqVfIoqdNq9k8qbWieqs27aJW7SPKpFtpzhJxSjKErx3O11frf0LlFx1yzi9PQfSRUfOei36Xa3ceYE+OMptvz/R1eqXC97b3vJK579EjV4TLJ9G5xmo2dpJKTeXinwS158jYYGgm7xXmr0I8O2Vu0CU6TaypXbav2K5PoUVFdvFl1KFkXnoxx0527AAUwAAFCosABQqAAAAAAAAAAAAAAAAAAAAFLFQBa4muxuwsNW1qUIN+1lSkvijZgDmKvkko60MRUp9jfSR8dSLPB7Ro7sldLqbhK3J7zsSlibjG7rgsRtSKdsVhJQftSpN9043t3mfCV8NKDjRrZb2atPOoPsTvyO0lTT3q/M1mN8nMJW1nQjf2orLJfFE3pt5NKqdV2Uuirx45o5ZW8UYIJQUZSpVKMrpXi5TpxVm3pG6srNLmibV8j3HWhi6lP9mdqseV3r4mJYDaNL8OsuuMnCVvdle/eiOFbuJ2HpRqKKjrFWlm7Hqop9b48+03WGo21tyXUjBsynPInUjllxjdPX4E4vDHXestAAdEgAAAAAAAAAAAAAAAAAAomVAAAAAAAAAAAAAAAAAAAAAAAAAAAAAAAAAAAAAAAAAAAAAAAP//Z" vertex="1" parent="1">
          <mxGeometry x="865" y="150.09" width="150" height="99.82" as="geometry" />
        </mxCell>
      </root>
    </mxGraphModel>
  </diagram>
</mxfile>
